<svg width="43" height="45" viewBox="0 0 43 45" fill="none" xmlns="http://www.w3.org/2000/svg">
<path d="M39.0621 26.3996C38.0945 25.5754 36.9978 24.9161 35.8159 24.4484C36.7003 22.9864 37.2945 21.3675 37.5659 19.6805L38.9939 10.6365C39.0153 10.5002 39.0043 10.3607 38.9615 10.2294C38.9188 10.0982 38.8456 9.97893 38.748 9.88138C38.651 9.78295 38.5318 9.7093 38.4004 9.66665C38.2689 9.62401 38.1292 9.61363 37.9929 9.63638L31.2624 10.6986L29.2341 5.79075C29.1814 5.66337 29.0993 5.55025 28.9946 5.46061C28.8898 5.37097 28.7654 5.30735 28.6314 5.27494C28.4974 5.24252 28.3576 5.24223 28.2235 5.27409C28.0893 5.30595 27.9646 5.36905 27.8595 5.45825L25.6877 7.30363L22.2595 1.3125C22.1766 1.18687 22.0638 1.08377 21.9312 1.01244C21.7987 0.941103 21.6505 0.903763 21.5 0.903763C21.3495 0.903763 21.2013 0.941103 21.0687 1.01244C20.9362 1.08377 20.8234 1.18687 20.7405 1.3125L17.3166 7.30013L15.1449 5.45475C15.0402 5.36481 14.9155 5.3012 14.7813 5.26923C14.647 5.23727 14.5071 5.23788 14.3731 5.271C14.2391 5.30336 14.1147 5.3669 14.0099 5.45646C13.9052 5.54602 13.823 5.65906 13.7702 5.78638L11.7674 10.6208L5.50062 9.632C5.3644 9.61062 5.22506 9.62173 5.09395 9.66442C4.96284 9.70712 4.84368 9.7802 4.74618 9.8777C4.64869 9.9752 4.57561 10.0944 4.53291 10.2255C4.49021 10.3566 4.4791 10.4959 4.50049 10.6321L5.92499 19.6875C6.19134 21.3142 6.7549 22.8779 7.58749 24.3005C6.2531 24.7699 5.01696 25.4818 3.94137 26.4005L0.808866 29.0868C0.713108 29.1689 0.636246 29.2708 0.58355 29.3854C0.530854 29.5 0.503571 29.6247 0.503571 29.7509C0.503571 29.877 0.530854 30.0017 0.58355 30.1163C0.636246 30.231 0.713108 30.3329 0.808866 30.415L3.93874 33.1013C6.02839 34.8891 8.6874 35.8726 11.4375 35.875H11.84C13.0279 35.8759 14.2086 35.692 15.34 35.3299C16.0114 38.9677 18.022 42.2218 20.975 44.45C21.1264 44.5636 21.3107 44.625 21.5 44.625C21.6893 44.625 21.8735 44.5636 22.025 44.45C24.9791 42.2226 26.991 38.9688 27.6635 35.3308C28.795 35.6921 29.9757 35.8757 31.1635 35.875H31.566C34.3165 35.8726 36.9759 34.8887 39.0656 33.1004L42.1981 30.4141C42.2939 30.332 42.3707 30.2301 42.4234 30.1155C42.4761 30.0008 42.5034 29.8762 42.5034 29.75C42.5034 29.6238 42.4761 29.4992 42.4234 29.3845C42.3707 29.2699 42.2939 29.168 42.1981 29.0859L39.0621 26.3996ZM37.075 11.55L35.8325 19.4075C35.5726 21.0701 34.9533 22.6559 34.0177 24.0546C33.0218 25.5384 31.7 26.7748 30.1532 27.6696C28.6063 28.5643 26.8754 29.0936 25.0927 29.2171L24.5957 29.2504C23.7318 29.312 22.8672 29.1403 22.0924 28.7534C22.081 28.7481 22.0714 28.7429 22.0591 28.7385C21.5938 28.5024 21.1689 28.194 20.8 27.825C20.3052 27.3301 19.9219 26.7352 19.6758 26.0801C19.4296 25.425 19.3264 24.7249 19.3729 24.0266L19.4052 23.5296C19.5809 20.8924 20.6477 18.3932 22.4306 16.442C24.2136 14.4909 26.6067 13.2037 29.2175 12.7916L37.075 11.55ZM28.0721 7.56963L29.4809 10.9821L28.9445 11.0696C28.5945 11.1248 28.2445 11.2096 27.8945 11.2945C27.6521 10.7984 27.4027 10.3136 27.1437 9.86038L26.5689 8.85413L28.0721 7.56963ZM17.377 10.7249L21.5 3.51313L25.623 10.7249C25.8234 11.0749 26.0141 11.4354 26.2005 11.8064C25.2873 12.1583 24.4153 12.6089 23.6 13.1504C22.9366 13.6016 22.3157 14.1124 21.745 14.6764C20.3717 13.3138 18.7079 12.2797 16.8782 11.6515C17.0436 11.3304 17.2125 11.025 17.377 10.7249ZM14.927 7.56875L16.4329 8.84888L15.8554 9.86038C15.6209 10.2769 15.3916 10.7161 15.1624 11.1729C14.9471 11.1283 14.7424 11.0924 14.5411 11.0635L13.5454 10.906L14.927 7.56875ZM6.41674 11.55L14.2769 12.7908C14.6598 12.849 15.0395 12.9269 15.4144 13.0244C17.3668 13.5283 19.1491 14.5448 20.5769 15.9688C18.8762 18.098 17.862 20.6933 17.6684 23.4115L17.636 23.9085C17.5722 24.8556 17.7119 25.8055 18.0458 26.6941C18.3796 27.5828 18.8998 28.3897 19.5715 29.0605C19.6284 29.1183 19.6914 29.1681 19.7509 29.2233C19.4687 29.2564 19.1842 29.2663 18.9004 29.253L18.3937 29.2171C17.7411 29.1745 17.0937 29.0735 16.4591 28.9153C15.364 28.6562 14.3122 28.24 13.3362 27.6798C11.8758 26.8367 10.6178 25.6838 9.65074 24.3023L9.47574 24.0564C8.54316 22.6569 7.92439 21.0722 7.66187 19.411L6.41674 11.55ZM11.84 34.125H11.4375C9.10503 34.1229 6.84979 33.2889 5.07712 31.773L2.71899 29.75L5.08149 27.727C6.1111 26.8507 7.31206 26.1987 8.60774 25.8125C10.4553 28.2269 13.0844 29.9244 16.0452 30.6145C16.7762 30.7975 17.522 30.9146 18.2739 30.9645L18.7787 31.0004C18.8557 31.0048 18.9327 31.0056 19.0089 31.0074L18.7464 31.2699C17.8687 32.1514 16.8288 32.8547 15.6839 33.341C14.469 33.8602 13.1612 34.1269 11.84 34.125ZM21.5 42.6344C19.0806 40.6066 17.4796 37.7694 16.9946 34.65C18.1003 34.1021 19.1098 33.3784 19.9836 32.5071L21.5 30.9873L23.0164 32.5036C23.8904 33.3749 24.8998 34.0989 26.0054 34.6474C25.521 37.7677 23.92 40.6059 21.5 42.6344ZM37.9237 31.7721C36.151 33.2886 33.8954 34.1229 31.5625 34.125H31.16C29.8365 34.1263 28.5267 33.8583 27.31 33.3375C26.1671 32.8503 25.129 32.1471 24.2527 31.2664L23.9841 30.9978C24.0795 30.9978 24.1749 31.0118 24.2702 31.0118C24.4181 31.0118 24.5669 31.0074 24.7147 30.9978L25.2117 30.9645C27.0675 30.8325 28.8759 30.3178 30.5231 29.453C32.1704 28.5882 33.6209 27.3919 34.7834 25.9394C35.9307 26.3369 36.9948 26.9429 37.922 27.727L40.281 29.75L37.9237 31.7721Z" fill="#264065"/>
</svg>
